<?xml version="1.0" standalone="no"?>
<!DOCTYPE svg PUBLIC "-//W3C//DTD SVG 20010904//EN"
 "http://www.w3.org/TR/2001/REC-SVG-20010904/DTD/svg10.dtd">
<svg version="1.0" xmlns="http://www.w3.org/2000/svg"
 width="2048.000000pt" height="2048.000000pt" viewBox="0 0 2048.000000 2048.000000"
 preserveAspectRatio="xMidYMid meet">

<g transform="translate(0.000000,2048.000000) scale(0.100000,-0.100000)"
fill="#000000" stroke="none">
<path d="M10315 11766 c-257 -43 -494 -161 -647 -322 -197 -210 -301 -503
-285 -807 26 -493 374 -885 874 -983 117 -23 344 -23 473 0 185 33 389 118
523 216 l67 50 0 440 0 440 -415 0 -415 0 0 -145 0 -145 255 0 255 0 0 -210 0
-210 -46 -30 c-143 -90 -387 -138 -564 -111 -250 38 -459 184 -563 393 -74
147 -100 286 -85 455 13 153 66 286 157 395 96 114 205 191 331 232 269 89
545 44 782 -127 l78 -56 85 123 c46 68 87 131 91 139 12 31 -195 156 -342 208
-168 58 -441 83 -609 55z"/>
<path d="M7370 11726 c0 -5 116 -244 306 -632 133 -273 416 -857 592 -1221
112 -235 149 -303 163 -303 14 0 36 34 83 128 76 151 490 1007 616 1272 49
102 149 311 223 465 133 276 135 280 112 287 -14 3 -101 3 -195 0 l-171 -7
-173 -380 c-95 -209 -227 -497 -293 -640 -66 -143 -135 -295 -154 -337 -19
-43 -37 -78 -40 -78 -4 0 -17 24 -29 52 -31 73 -349 763 -460 998 -50 107
-112 238 -136 291 l-45 96 -112 6 c-129 8 -287 9 -287 3z"/>
<path d="M11860 11695 c0 -13 -23 -158 -50 -322 -28 -164 -93 -550 -145 -858
-52 -308 -106 -622 -118 -697 l-24 -138 161 0 162 0 33 218 c42 271 181 1115
184 1119 4 3 253 -502 435 -882 l139 -290 101 -3 101 -3 32 68 c18 37 128 266
246 508 118 242 233 479 255 528 23 48 44 87 47 87 3 0 19 -78 34 -173 15 -94
65 -397 110 -672 l82 -500 163 -3 c143 -2 162 -1 162 13 0 9 -29 177 -64 373
-35 196 -87 488 -115 647 -28 160 -75 430 -105 600 -30 171 -58 331 -61 358
l-7 47 -102 0 -103 0 -148 -312 c-165 -348 -344 -731 -442 -943 -35 -77 -67
-143 -71 -147 -4 -4 -42 65 -84 155 -42 89 -152 320 -245 512 -92 193 -208
437 -257 543 l-89 192 -109 0 -108 0 0 -25z"/>
<path d="M7365 11243 c11 -3 26 -10 33 -15 9 -8 11 -7 6 6 -4 10 -16 16 -33
15 -20 -1 -22 -2 -6 -6z"/>
<path d="M7198 11233 c12 -2 32 -2 45 0 12 2 2 4 -23 4 -25 0 -35 -2 -22 -4z"/>
<path d="M6932 11188 c-11 -24 -52 -103 -91 -177 -39 -74 -68 -137 -66 -141 3
-5 -2 -11 -10 -14 -13 -5 -11 -12 11 -46 15 -22 31 -40 36 -40 5 0 7 -4 3 -9
-3 -5 -1 -12 4 -15 15 -9 7 16 -17 54 -16 25 -18 36 -9 42 9 6 8 8 -3 8 -13 0
-13 1 0 10 10 7 11 10 2 10 -9 0 -6 12 8 40 12 23 24 39 28 36 4 -2 8 6 8 19
1 13 12 38 24 54 12 17 18 31 15 31 -3 0 3 13 14 29 12 16 21 33 21 39 0 5 14
28 30 50 17 23 27 43 23 44 -5 0 15 4 42 8 l50 7 -51 1 c-52 2 -52 2 -72 -40z"/>
<path d="M7490 11080 c6 -11 13 -20 16 -20 2 0 0 9 -6 20 -6 11 -13 20 -16 20
-2 0 0 -9 6 -20z"/>
<path d="M7530 11015 c0 -6 7 -19 15 -29 8 -10 12 -23 9 -27 -3 -5 0 -9 6 -9
6 0 8 -10 3 -27 -3 -16 -6 -36 -5 -46 0 -13 -4 -17 -14 -13 -8 3 -14 1 -14 -4
0 -6 5 -10 11 -10 7 0 9 -10 5 -24 -3 -14 -2 -27 3 -30 5 -4 4 -16 -2 -30 -7
-13 -15 -22 -20 -19 -5 3 -7 -1 -6 -8 1 -8 -14 -49 -34 -92 -65 -137 -39 -98
47 73 l83 164 -30 51 c-39 66 -57 92 -57 80z m31 -208 c-10 -9 -11 -8 -5 6 3
10 9 15 12 12 3 -3 0 -11 -7 -18z"/>
<path d="M7431 10533 c-8 -16 -26 -18 -134 -18 -69 0 -129 -4 -133 -8 -4 -4
52 -6 125 -5 126 3 134 4 149 26 8 12 12 22 9 22 -3 0 -10 -8 -16 -17z"/>
<path d="M6960 10534 c0 -6 7 -19 15 -30 8 -10 14 -14 14 -9 0 6 -6 19 -14 29
-8 11 -15 15 -15 10z"/>
<path d="M7012 10498 c-9 -4 18 -7 61 -7 42 -1 77 2 77 7 0 9 -115 9 -138 0z"/>
<path d="M12595 9168 c-33 -18 -45 -40 -45 -83 0 -58 34 -95 87 -95 42 1 61
12 87 52 51 78 -46 172 -129 126z"/>
<path d="M8380 8990 l0 -160 -41 29 c-53 39 -130 55 -193 41 -68 -15 -95 -31
-148 -88 -126 -135 -113 -377 26 -500 101 -89 218 -95 321 -17 l45 35 0 -35 0
-35 73 0 74 0 6 272 c4 149 7 349 7 445 l0 173 -85 0 -85 0 0 -160z m-108
-240 c52 -15 105 -77 113 -134 13 -83 -2 -135 -50 -183 -40 -40 -46 -43 -98
-43 -46 0 -61 5 -88 27 -107 91 -84 296 37 333 39 11 44 11 86 0z"/>
<path d="M7110 8670 l0 -410 305 0 305 0 0 33 c0 17 3 49 6 70 l7 37 -232 0
-232 0 3 98 3 97 193 3 192 2 0 73 0 72 -195 -3 -196 -4 3 99 3 98 180 -4
c100 -2 200 0 223 4 l42 7 0 69 0 69 -305 0 -305 0 0 -410z"/>
<path d="M11999 9063 c-1 -4 0 -43 1 -85 l2 -78 -51 0 -51 0 0 -70 0 -70 45 0
45 0 0 -162 c1 -90 5 -183 9 -207 22 -113 128 -165 266 -130 63 16 71 28 56
94 -12 52 -13 54 -37 45 -36 -14 -87 -12 -108 3 -23 17 -32 122 -21 261 l7 96
79 0 79 0 0 70 0 69 -82 3 -83 3 -1 80 -2 80 -76 3 c-42 2 -76 -1 -77 -5z"/>
<path d="M10630 8895 c-140 -47 -229 -188 -218 -344 6 -82 34 -146 89 -206 63
-68 107 -88 209 -93 103 -5 175 18 240 76 l41 37 -46 52 -46 52 -41 -29 c-87
-64 -168 -60 -231 9 -85 94 -52 261 59 300 60 21 103 9 185 -51 14 -10 25 -3
67 43 l50 54 -26 28 c-15 16 -49 40 -77 54 -63 32 -186 41 -255 18z"/>
<path d="M11348 8900 c-42 -11 -158 -67 -158 -76 0 -4 14 -33 32 -65 l32 -58
27 20 c100 71 217 61 259 -22 37 -72 35 -74 -90 -71 -131 4 -190 -11 -238 -61
-38 -40 -52 -75 -52 -133 0 -134 130 -214 293 -181 22 5 55 24 78 44 l39 35 0
-36 0 -36 75 0 75 0 0 200 c0 109 -5 222 -11 250 -16 73 -64 139 -123 168 -54
27 -174 38 -238 22z m188 -380 c24 -9 26 -14 21 -46 -11 -64 -65 -104 -142
-104 -97 0 -132 103 -50 148 25 14 135 15 171 2z"/>
<path d="M13185 8897 c-101 -34 -178 -106 -215 -203 -45 -120 -11 -276 80
-358 74 -67 113 -81 225 -81 84 0 107 4 146 23 72 35 125 87 156 150 25 50 28
68 28 152 0 76 -4 104 -22 142 -28 61 -101 134 -161 160 -58 26 -180 34 -237
15z m179 -157 c37 -22 71 -79 81 -133 16 -87 -50 -198 -128 -212 -113 -22
-197 54 -197 179 0 71 17 113 64 154 32 28 44 32 93 32 38 0 66 -6 87 -20z"/>
<path d="M14095 8893 c-16 -8 -45 -29 -62 -46 l-33 -31 0 42 0 42 -80 0 -80 0
0 -320 0 -320 79 0 80 0 3 213 c3 231 7 247 64 278 35 18 97 16 130 -5 47 -32
54 -67 54 -286 l0 -200 80 0 80 0 0 231 c0 145 -4 246 -11 270 -16 52 -64 108
-113 130 -51 23 -149 24 -191 2z"/>
<path d="M8802 8647 l3 -254 30 -49 c72 -115 230 -135 331 -42 l44 41 0 -42 0
-41 75 0 75 0 0 320 0 320 -80 0 -80 0 0 -205 c0 -229 -5 -250 -63 -285 -48
-30 -100 -26 -139 9 l-33 29 -3 226 -3 226 -80 0 -80 0 3 -253z"/>
<path d="M9622 8647 l3 -254 30 -48 c41 -66 104 -99 189 -98 67 1 107 16 145
57 33 35 41 33 41 -9 l0 -35 75 0 75 0 0 223 c0 122 3 266 7 320 l6 97 -86 0
-86 0 -3 -220 -3 -220 -31 -31 c-40 -39 -109 -51 -150 -25 -47 32 -54 67 -54
291 l0 205 -80 0 -81 0 3 -253z"/>
<path d="M12560 8580 l0 -320 80 0 80 0 0 320 0 320 -80 0 -80 0 0 -320z"/>
</g>
</svg>
